PathFileType	4	(X/Y/Z)	C:\Users\Biomechanik\SynologyDrive\AlexP\Athlete_03\Athlete_3_25_03_31\Walking_02\marker_experimental.trc
DataRate	CameraRate	NumFrames	NumMarkers	Units	OrigDataRate	OrigDataStartFrame	OrigNumFrames
200.000000	200.000000	4	53	mm	200.000000	123	493
Frame#	Time	GLAB			RFHD			LFHD			C7			T6			SPINMOL			SPINM2			SPINM3			T12			BELTOL			BELT2			BELT3			SACROL			SACR2			SACR3			LTHOL			LTH2			LTH3			LSHAOL			LSHA2			LSHA3			LHEE			LTOE			LM5			RTHOL			RTH2			RSHAOL			RSHA2			RSHA3			RHEE			RTOE			RM5			STRN			XIPH			LACR			LUAOL			LUA2			LUA3			LLAOL			LLA2			LLA3			LWRR			LWRU			RACR			RUAOL			RUA2			RUA3			RLAOL			RLA2			RLA3			RWRR			RWRU			RTH3			
		X1	Y1	Z1	X2	Y2	Z2	X3	Y3	Z3	X4	Y4	Z4	X5	Y5	Z5	X6	Y6	Z6	X7	Y7	Z7	X8	Y8	Z8	X9	Y9	Z9	X10	Y10	Z10	X11	Y11	Z11	X12	Y12	Z12	X13	Y13	Z13	X14	Y14	Z14	X15	Y15	Z15	X16	Y16	Z16	X17	Y17	Z17	X18	Y18	Z18	X19	Y19	Z19	X20	Y20	Z20	X21	Y21	Z21	X22	Y22	Z22	X23	Y23	Z23	X24	Y24	Z24	X25	Y25	Z25	X26	Y26	Z26	X27	Y27	Z27	X28	Y28	Z28	X29	Y29	Z29	X30	Y30	Z30	X31	Y31	Z31	X32	Y32	Z32	X33	Y33	Z33	X34	Y34	Z34	X35	Y35	Z35	X36	Y36	Z36	X37	Y37	Z37	X38	Y38	Z38	X39	Y39	Z39	X40	Y40	Z40	X41	Y41	Z41	X42	Y42	Z42	X43	Y43	Z43	X44	Y44	Z44	X45	Y45	Z45	X46	Y46	Z46	X47	Y47	Z47	X48	Y48	Z48	X49	Y49	Z49	X50	Y50	Z50	X51	Y51	Z51	X52	Y52	Z52	X53	Y53	Z53	

124	0.615	209.0040893554686	1584.832641601562	278.5173645019532	158.439727783203	1612.274047851562	341.9022216796876	166.5345306396483	1605.843017578125	204.1062316894532	-16.99995040893569	1426.419067382812	272.4500732421875	-78.76894378662121	1259.34912109375	269.2372131347656	-86.82285308837902	1218.83642578125	247.7138061523437	-94.800994873047	1212.220825195312	297.7026672363281	-84.46529388427746	1154.8056640625	263.8929138183594	-62.00364685058605	1087.91552734375	265.65234375	-97.85900115966808	1053.249389648438	247.96630859375	-101.4555053710939	1052.966796875	299.2398681640625	-104.5810089111329	991.5751953125	270.3962097167969	-84.04197692871104	942.3273315429688	240.7878723144531	-89.47717285156261	943.3670654296875	292.6933898925781	-104.2400283813478	883.9774169921875	265.6829528808594	107.935935974121	656.0345458984375	84.32971191406251	92.03025054931634	586.314697265625	117.0029525756836	134.7807312011718	602.1259765625	96.38423919677737	231.8906097412109	331.3456726074219	76.32968139648442	206.5286560058593	257.3377685546875	90.88277435302739	253.0641632080078	273.2340698242188	81.69023132324223	257.4789428710937	64.58926391601564	165.1583557128907	472.1707763671875	116.5446929931641	151.3177032470704	435.0977478027344	78.17653656005862	59.33025741577156	-62.27497863769544	692.9288330078125	450.5359191894531	-19.8760623931886	626.1840209960938	458.07275390625	-157.0636749267579	350.652099609375	422.8649902343749	-138.415252685547	273.7977905273438	420.29345703125	-181.7996368408204	295.4921569824219	407.9990234374999	-253.9005584716797	86.98324584960936	295.3028869628906	-48.61455917358404	44.00344848632812	309.6756286621094	-100.870964050293	39.25008392333984	411.1382446289062	153.3396911621092	1323.363647460938	271.5890808105469	163.6397552490233	1178.295043945312	274.8351745605469	58.38848495483388	1386.74365234375	96.98245239257814	26.04616737365715	1235.026733398438	-5.119592666625972	2.068683147430352	1175.798583984375	-22.78375625610352	50.82609176635735	1174.155395507812	-7.668256282806387	7.616856098175	973.9425048828125	-57.65307235717773	-34.74591827392583	910.1716918945312	-37.54392623901368	9.31974601745601	912.3825073242188	-60.93511199951172	20.84437751770016	809.0790405273438	-70.36741638183594	74.20777893066402	804.4762573242188	-12.88021087646483	69.82452392578108	1383.654052734375	439.9496459960938	76.23210906982405	1243.303833007812	547.6756591796875	113.1165084838865	1188.765502929688	556.939697265625	64.56899261474592	1183.83984375	573.453857421875	189.1027374267576	990.5216064453125	596.9933471679688	268.4838562011717	983.004638671875	599.8392333984375	234.5477447509764	949.2203979492188	585.9873046875	314.618438720703	907.3485107421875	573.1672363281251	338.7871704101561	930.7728271484375	498.6202697753907	-65.713592529297	632.8336181640625	438.9624633789062	
125	0.62	215.8041076660155	1583.603881835938	277.4470214843751	165.2429199218749	1611.07763671875	340.8233337402344	173.2973480224608	1604.501220703125	203.0232543945313	-10.1221494674684	1425.191040039062	271.5068359375	-72.01308441162121	1258.19482421875	268.2992248535156	-80.07535552978527	1217.664428710938	246.7946319580078	-88.13679504394544	1211.061889648438	296.7421569824219	-77.76163482666027	1153.618530273438	263.0045776367188	-55.28172302246105	1086.6474609375	264.8077697753906	-91.22618865966808	1051.811767578125	247.2904052734375	-94.87590026855482	1051.606689453125	298.5589294433594	-97.97747802734385	990.1724853515625	269.8080139160156	-77.34476470947276	941.1454467773438	239.9860229492188	-82.99116516113293	942.4085083007812	291.8741455078125	-97.86659240722666	882.9701538085938	265.0289916992188	113.3446197509765	653.9911499023438	84.80403137207033	97.56186676025384	584.6290893554688	118.3288955688477	140.1291503906249	600.122802734375	97.10552978515628	242.3309173583984	329.9270935058594	76.09876251220707	218.6040039062499	255.243896484375	90.05400085449223	264.832763671875	272.2918395996094	81.26786804199223	273.7987060546874	63.31032943725587	163.6153869628907	487.3549499511719	120.1421356201172	151.6839752197266	451.9529113769531	81.09765625000003	59.28729248046884	-57.60651016235364	692.8275146484375	450.0378112792969	-15.76963233947766	625.8231811523438	458.1148681640625	-154.5140075683595	351.1704711914062	422.7257385253906	-136.4782714843751	274.1675109863281	420.1825561523438	-179.6945800781251	296.2119750976562	407.8783569335937	-253.4958953857422	88.13864135742186	295.2530822753906	-48.55885696411138	44.00654602050781	309.5611572265625	-100.7050704956055	39.29193496704101	411.111572265625	160.1863403320311	1321.929565429688	270.8719177246094	170.3630981445311	1176.863525390625	274.2965698242188	65.40335845947256	1385.2490234375	96.10315704345705	32.76887512207023	1233.484375	-5.861171722412103	8.640110015869073	1174.29541015625	-23.44597244262695	57.40587234497063	1172.542358398438	-8.358796119689931	13.32303524017329	972.501220703125	-58.22080993652344	-29.36550331115728	908.9804077148438	-38.00632476806641	14.64046096801753	910.9423828125	-61.53140258789062	25.53824806213375	807.5801391601562	-71.03738403320312	78.98298645019527	802.61328125	-13.68846511840819	76.58085632324202	1382.356689453125	439.1007080078125	83.20434570312483	1242.160278320312	546.7791748046875	120.206817626953	1187.724731445312	556.1558837890625	71.66504669189436	1182.710327148438	572.6439208984375	197.1227111816405	990.0128173828125	596.1945190429688	276.5722351074217	983.1502075195312	598.8336181640625	242.8780670166014	949.1084594726562	585.05126953125	323.2630310058592	907.8943481445312	571.9647827148439	347.1252136230467	931.7252197265625	497.4691162109376	-61.38980102539074	632.7301025390625	438.5769958496094	
126	0.625	222.6277008056639	1582.380249023438	276.3542785644532	172.0675811767577	1609.8876953125	339.7191162109376	180.0883331298827	1603.16650390625	201.9160919189453	-3.22143721580519	1423.970825195312	270.5266723632812	-65.2330780029298	1257.042358398438	267.3338317871094	-73.30117797851574	1216.49365234375	245.8484649658203	-81.43144989013685	1209.898681640625	295.7494201660156	-71.03754425048839	1152.437377929688	262.0968322753906	-48.52188873291027	1085.384399414062	263.9381408691406	-84.55889129638683	1050.374389648438	246.5540771484375	-88.26737976074232	1050.239990234375	297.8145141601562	-91.33431243896494	988.7673950195312	269.1540222167969	-70.60335540771494	939.9627075195312	239.1428527832031	-76.45794677734386	941.4356689453125	291.0130920410156	-91.42269897460947	881.948974609375	264.3204040527344	118.8728713989257	652.031982421875	85.12564086914065	103.1816253662109	583.0108642578125	119.4360046386719	145.5863189697265	598.1958618164062	97.67900848388675	252.5137481689453	328.5825500488281	75.86919403076176	230.3572387695312	253.293701171875	89.26593017578129	276.2698669433594	271.426513671875	80.86011505126959	289.5935668945312	62.1963348388672	162.1495971679688	501.9757995605469	123.6269760131836	152.0918426513673	468.2051391601562	83.95045471191409	59.30492782592782	-52.84780120849622	692.7398681640625	449.5101623535156	-11.56999874115002	625.489013671875	458.1544494628906	-151.8453979492189	351.7236328125	422.6132202148438	-134.4435424804689	274.5727233886719	420.09521484375	-177.4863128662111	296.975830078125	407.7859802246093	-253.0653381347657	89.3909454345703	295.2460327148437	-48.49684143066412	44.00823974609375	309.447998046875	-100.5276641845704	39.34135437011718	411.0972595214844	167.0576324462889	1320.507568359375	270.1316528320313	177.1212158203124	1175.448852539062	273.7413635253907	72.45374298095693	1383.753662109375	95.19409942626955	39.56000137329094	1231.934814453125	-6.62745285034179	15.29346466064446	1172.78271484375	-24.1413345336914	64.06314849853509	1170.925659179688	-9.067572593688952	19.1378669738769	971.054931640625	-58.81205368041992	-23.8796882629395	907.7847900390625	-38.50581741333009	20.07132148742671	909.5004272460938	-62.15103912353515	30.34951591491696	806.0836181640625	-71.72347259521484	83.85525512695308	800.7528686523438	-14.49101924896239	83.3523864746092	1381.075805664062	438.2211608886719	90.18338012695295	1241.023681640625	545.843505859375	127.2929916381834	1186.686401367188	555.32080078125	78.75635528564436	1181.58642578125	571.7876586914062	205.0604095458983	989.4738159179688	595.356689453125	284.5691528320311	983.2229614257812	597.8092041015625	251.1020050048826	948.939453125	584.0913696289062	331.7737426757811	908.3405151367188	570.7598266601564	355.3520507812498	932.5470581054688	496.3189086914063	-56.96484375000011	632.6390380859375	438.1767578125	
127	0.63	229.4748382568358	1581.165771484375	275.2388305664063	178.9131774902342	1608.708740234375	338.5896911621094	186.9077301025389	1601.84326171875	200.7842559814453	3.701665639877183	1422.761108398438	269.5094604492188	-58.4267501831056	1255.893676757812	266.3414916992188	-66.49784088134777	1215.326171875	244.8754577636719	-74.68275451660169	1208.733642578125	294.7250671386719	-64.28844451904308	1151.264038085938	261.1683044433594	-41.7228355407716	1084.130126953125	263.0440063476562	-77.85236358642589	1048.942626953125	245.7518768310547	-81.62486267089857	1048.871337890625	297.0007629394531	-84.64719390869151	987.3652954101562	268.4287109375	-63.81504058837901	938.7830810546875	238.2583465576172	-69.87250518798839	940.449951171875	290.1104736328125	-84.90411376953135	880.9160766601562	263.5552062988281	124.5550003051757	650.1691284179688	85.28791046142581	108.9197998046874	581.4644775390625	120.3015289306641	151.1878967285156	596.3573608398438	98.09317779541018	262.4296264648438	327.2973937988281	75.64482879638676	241.7674255371093	251.4700469970703	88.52759552001957	287.3602294921875	270.6162414550781	80.47441864013678	304.8212890624999	61.21879577636721	160.7887878417969	516.0125732421875	126.9546127319336	152.5247192382813	483.8115539550781	86.68233489990237	59.37631225585947	-47.98889160156263	692.664794921875	448.9564819335938	-7.265966415405396	625.1808471679688	458.1874389648438	-149.0540161132814	352.3129272460938	422.5267028808594	-132.3087768554689	275.0155944824219	420.0306701660156	-175.1711425781251	297.7856140136719	407.7199707031249	-252.6054382324219	90.74563598632811	295.2830200195312	-48.42827987670904	44.00783157348633	309.3370361328125	-100.3369750976563	39.39931869506835	411.0958251953125	173.9538574218749	1319.10400390625	269.3674621582032	183.9164123535155	1174.057250976562	273.1688232421876	79.53809356689443	1382.262939453125	94.25534820556642	46.4184036254882	1230.383056640625	-7.418077468872061	22.02814102172845	1171.265014648438	-24.8695068359375	70.79762268066399	1169.310791015625	-9.79464530944823	25.06361007690425	969.6083374023438	-59.42605209350585	-18.28651046752935	906.5896606445312	-39.04250335693359	25.61460685729976	908.0615234375	-62.79371261596679	35.28062057495114	804.5939331054688	-72.42555236816406	88.82677459716793	798.899658203125	-15.28708171844481	90.13932037353499	1379.818115234375	437.3107299804688	97.16727447509749	1239.900024414062	544.8692626953125	134.3730468749998	1185.656127929688	554.4353637695312	85.84095001220686	1180.474243164062	570.8851928710938	212.9122467041014	988.9075317382812	594.4794921875	292.4718627929686	983.2235107421875	596.7666015625	259.2162475585936	948.714111328125	583.1067504882812	340.1469726562498	908.6856689453125	569.5541992187501	363.4670410156248	933.2380981445312	495.1710510253907	-52.42984771728527	632.5601196289062	437.7633056640625	
